<?xml version="1.0" standalone="no"?>
<!DOCTYPE svg PUBLIC "-//W3C//DTD SVG 20010904//EN"
 "http://www.w3.org/TR/2001/REC-SVG-20010904/DTD/svg10.dtd">
<svg version="1.0" xmlns="http://www.w3.org/2000/svg"
 width="460.000000pt" height="460.000000pt" viewBox="0 0 460.000000 460.000000"
 preserveAspectRatio="xMidYMid meet">
<metadata>
Created by potrace 1.14, written by Peter Selinger 2001-2017
</metadata>
<g transform="translate(0.000000,460.000000) scale(0.100000,-0.100000)"
fill="#000000" stroke="none">
<path d="M2150 4515 c-88 -13 -213 -52 -252 -79 -12 -9 -29 -16 -36 -16 -16 0
-93 -52 -127 -86 -13 -13 -30 -24 -38 -24 -13 0 -137 -132 -137 -146 0 -4 -12
-28 -27 -53 -15 -26 -35 -83 -45 -130 -15 -74 -23 -245 -14 -311 17 -134 18
-153 5 -160 -9 -6 -10 -12 -2 -22 6 -7 11 -33 10 -57 0 -26 6 -47 14 -52 11
-7 11 -9 -3 -9 -9 0 -18 5 -20 11 -2 6 -13 9 -23 7 -15 -3 -8 -10 30 -29 43
-21 50 -27 47 -51 -2 -14 2 -29 7 -33 6 -3 11 -21 10 -38 0 -27 -2 -29 -9 -12
-5 11 -9 14 -9 8 -1 -7 -10 -13 -21 -13 -11 0 -36 -15 -55 -32 -34 -32 -34
-34 -24 -78 10 -47 30 -70 61 -70 13 0 18 8 18 25 0 27 35 105 48 105 4 0 16
-28 27 -61 18 -59 52 -115 62 -105 2 2 -7 37 -22 78 -27 74 -30 152 -7 182 11
13 32 129 32 177 0 19 13 73 29 119 16 47 31 115 34 153 3 37 10 73 16 81 6 7
8 16 5 19 -4 4 1 18 11 33 14 21 22 25 46 20 26 -5 29 -3 29 20 0 19 21 48 77
105 43 43 83 79 89 79 7 0 14 5 16 11 2 6 25 13 50 16 52 6 108 -13 108 -37 0
-12 2 -13 9 -1 5 7 21 14 36 14 28 0 48 -20 38 -36 -3 -5 0 -35 7 -68 9 -43
10 -62 2 -72 -9 -10 -6 -17 8 -27 24 -17 25 -36 6 -56 -19 -18 -36 -18 -36 1
0 14 -22 20 -63 17 -10 -1 -20 4 -23 12 -4 10 -11 8 -30 -11 l-25 -25 23 -34
c13 -19 31 -36 40 -39 23 -8 34 -62 16 -83 -17 -20 -12 -52 7 -52 16 0 30 -18
21 -27 -10 -10 -86 -11 -86 -1 0 5 -7 5 -17 -1 -10 -5 -26 -5 -39 0 -13 4 -50
4 -86 -2 -35 -6 -77 -8 -95 -5 -44 6 -92 -8 -142 -44 -38 -28 -41 -34 -41 -75
0 -32 4 -45 14 -45 21 0 36 -24 45 -71 5 -31 12 -43 22 -40 54 15 107 3 116
-26 5 -13 -35 -11 -69 2 -11 4 -18 3 -18 -4 0 -16 38 -51 55 -51 25 0 145 -59
145 -71 0 -7 12 -3 28 7 15 10 39 24 54 31 26 13 48 57 48 95 0 39 38 76 88
87 42 9 49 8 65 -10 10 -12 17 -38 17 -60 0 -25 5 -42 14 -45 8 -3 12 -12 9
-20 -3 -8 -1 -14 5 -14 14 0 23 -60 24 -160 1 -76 -1 -89 -25 -123 -14 -21
-27 -43 -29 -49 -3 -7 -12 -9 -22 -5 -11 4 -16 13 -12 22 10 27 -13 25 -58 -6
-49 -32 -62 -31 -76 7 -11 28 -54 34 -64 8 -3 -8 -11 -12 -17 -9 -6 4 -8 13
-5 20 3 8 -2 19 -9 25 -12 10 -16 9 -21 -4 -3 -9 -4 -22 -1 -30 3 -7 0 -19 -6
-25 -8 -8 -3 -11 21 -11 18 0 41 -4 52 -10 11 -5 30 -15 42 -22 42 -21 86 -27
105 -12 26 19 43 17 43 -6 0 -26 -49 -73 -68 -65 -8 3 -16 -3 -19 -14 -3 -11
-10 -18 -16 -15 -15 5 -44 -13 -34 -22 3 -4 24 -7 44 -8 71 -3 88 -39 26 -55
-57 -15 -157 -30 -166 -24 -11 7 23 43 51 54 27 11 30 33 2 26 -13 -3 -20 0
-20 9 0 8 -10 14 -25 14 -14 0 -25 -4 -25 -9 0 -5 -11 -8 -25 -7 -14 0 -25 7
-25 14 0 7 -5 10 -11 7 -5 -4 -9 -14 -7 -23 2 -10 -5 -24 -15 -32 -23 -19 -27
-100 -7 -150 53 -139 87 -177 170 -192 47 -9 63 -9 69 0 5 8 17 2 40 -20 27
-26 30 -34 17 -36 -9 -2 -14 -8 -10 -13 3 -6 0 -16 -6 -24 -14 -17 -35 -21
-25 -5 3 5 -8 9 -28 8 -29 -1 -35 -6 -51 -44 -17 -40 -20 -43 -49 -37 -16 3
-50 25 -73 47 -104 99 -144 129 -144 107 0 -6 7 -11 15 -11 8 0 22 -17 32 -37
9 -21 34 -55 55 -75 32 -30 35 -37 21 -41 -11 -3 -7 -5 10 -6 37 -1 117 -38
117 -54 0 -7 14 -18 30 -24 17 -6 29 -17 28 -24 -2 -7 4 -13 12 -14 18 0 26
-41 11 -59 -8 -10 -7 -17 4 -26 9 -7 13 -21 10 -31 -4 -13 -1 -19 9 -19 9 0
16 -8 16 -19 0 -10 6 -24 14 -30 20 -17 16 -53 -9 -73 -24 -21 -78 -21 -70 0
2 7 1 11 -3 9 -14 -8 -67 30 -64 46 1 8 -2 18 -8 22 -6 4 -7 -1 -3 -12 7 -17
5 -17 -17 -2 -13 9 -26 22 -29 30 -4 12 -2 12 12 0 11 -9 17 -10 17 -2 0 6 -4
12 -10 12 -5 1 -14 2 -19 3 -5 0 -13 4 -17 9 -4 4 -13 7 -20 7 -9 0 31 -53 63
-82 4 -4 39 -37 76 -73 38 -36 74 -65 81 -65 8 0 25 -9 39 -20 38 -30 99 -26
163 11 30 17 57 36 61 44 8 12 51 63 149 173 23 26 74 95 113 154 64 97 71
113 71 157 0 45 -2 50 -29 59 -27 10 -28 12 -30 85 -1 51 4 92 18 133 31 96
42 153 51 264 7 96 35 210 52 210 4 0 10 -9 13 -21 9 -26 50 -42 76 -29 23 13
89 112 132 200 29 58 32 74 32 152 0 72 -3 91 -21 115 -26 34 -46 39 -96 22
-21 -7 -41 -9 -45 -6 -3 4 2 48 12 99 25 128 26 396 2 488 -23 86 -61 160
-108 209 -22 22 -39 47 -39 54 0 8 -19 31 -42 52 -24 20 -59 51 -78 68 -20 18
-58 43 -85 57 -28 13 -68 35 -90 49 -44 27 -224 82 -264 80 -14 -1 -64 -7
-111 -14z m66 -871 c-3 -9 -6 -20 -6 -25 0 -5 -9 -9 -20 -9 -24 0 -25 8 -3 32
20 22 37 24 29 2z m-326 -309 l0 -35 -25 16 c-28 18 -30 25 -13 42 23 23 38
13 38 -23z m550 -367 c0 -13 -28 -9 -33 5 -2 6 -2 18 1 26 4 11 8 10 19 -5 7
-10 13 -21 13 -26z m-240 -425 c25 -6 50 -26 50 -39 0 -4 -3 -4 -7 -1 -3 4
-12 2 -18 -3 -20 -17 -89 2 -100 28 -5 12 -13 22 -17 22 -5 0 -8 4 -8 9 0 5
16 5 38 -1 20 -5 48 -12 62 -15z m-140 -3 c9 -6 10 -10 3 -10 -6 0 -19 -3 -27
-6 -12 -5 -15 -2 -10 10 7 18 13 20 34 6z m26 -35 c-5 -24 -3 -35 5 -35 7 0
10 -3 7 -6 -9 -8 -58 26 -58 40 0 9 25 27 49 35 2 0 0 -15 -3 -34z"/>
<path d="M1361 3361 c-13 -13 -22 -41 -26 -86 -6 -57 -4 -75 16 -126 13 -33
26 -53 27 -44 2 9 -2 30 -8 46 -22 51 7 165 47 187 21 12 10 42 -17 42 -11 0
-29 -9 -39 -19z"/>
<path d="M1380 3076 c0 -1 10 -14 23 -27 12 -14 29 -36 38 -49 9 -14 20 -22
24 -18 4 4 1 14 -6 22 -8 8 -25 28 -38 45 -20 26 -41 40 -41 27z"/>
<path d="M1525 3030 c3 -5 10 -10 16 -10 5 0 9 5 9 10 0 6 -7 10 -16 10 -8 0
-12 -4 -9 -10z"/>
<path d="M1578 2932 c-20 -54 -14 -67 13 -33 20 24 24 48 11 68 -5 7 -14 -6
-24 -35z"/>
<path d="M2060 2960 c0 -5 5 -10 10 -10 6 0 10 5 10 10 0 6 -4 10 -10 10 -5 0
-10 -4 -10 -10z"/>
<path d="M1867 2880 c6 -24 19 -26 27 -4 9 23 8 24 -13 24 -14 0 -18 -5 -14
-20z"/>
<path d="M1742 2155 c0 -16 2 -22 5 -12 2 9 2 23 0 30 -3 6 -5 -1 -5 -18z"/>
<path d="M2920 1959 c12 -41 -7 -144 -58 -324 -22 -77 -45 -164 -52 -194 -14
-61 -79 -206 -80 -178 0 10 -21 37 -47 60 -26 23 -64 58 -84 77 -78 75 -101
93 -109 80 -5 -8 -9 -5 -13 9 -8 32 -38 39 -55 13 -8 -12 -18 -22 -23 -22 -5
0 -3 11 6 24 8 13 13 30 10 38 -9 23 -65 37 -118 29 -61 -10 -72 -21 -21 -21
l39 -1 -35 -29 c-20 -18 -46 -30 -62 -30 -28 0 -45 -14 -29 -24 5 -4 11 -1 13
5 2 5 11 7 20 4 15 -6 16 -9 3 -22 -13 -13 -20 -11 -60 14 -24 15 -44 33 -45
39 0 18 46 44 77 44 20 0 31 7 40 25 6 14 8 27 4 29 -22 14 -185 -125 -245
-209 -39 -54 -108 -117 -117 -108 -9 10 -99 188 -99 196 0 4 -25 59 -55 122
-30 64 -55 122 -55 128 0 7 -16 48 -35 92 -19 44 -35 85 -35 92 0 17 -4 16
-47 -7 -21 -11 -48 -20 -62 -20 -13 0 -62 -15 -110 -34 -47 -19 -129 -44 -181
-57 -61 -15 -116 -36 -155 -59 -116 -70 -227 -124 -274 -133 -19 -4 -54 -18
-77 -32 -40 -24 -43 -28 -50 -82 -10 -80 3 -294 27 -459 43 -295 87 -703 96
-892 l6 -142 1627 0 1627 0 12 27 c7 16 17 52 22 81 5 28 13 76 18 105 5 28
18 77 30 107 12 30 21 63 21 73 0 26 -24 16 -28 -11 -2 -12 -10 -22 -18 -22
-9 0 -23 -8 -32 -17 -16 -15 -18 -14 -28 23 -6 21 -14 38 -17 37 -4 -2 -14 -3
-23 -3 -11 0 -14 -5 -10 -16 6 -15 -26 -84 -51 -112 -7 -7 -13 -18 -13 -23 0
-5 -6 -9 -14 -9 -8 0 -17 -10 -19 -23 -2 -12 -5 -4 -6 19 0 22 3 44 8 50 14
15 25 78 12 70 -6 -4 -11 -15 -12 -24 0 -13 -2 -12 -9 4 -11 29 13 223 29 233
8 6 11 17 6 31 -4 14 -3 20 3 16 11 -7 22 40 22 93 0 27 -3 32 -10 21 -8 -12
-10 -10 -11 10 -1 14 -7 -4 -14 -40 l-13 -65 0 65 c1 79 -19 532 -27 615 -8
80 -41 208 -65 253 -11 20 -20 44 -20 53 0 12 -21 23 -72 40 -40 12 -109 37
-154 55 -44 18 -122 46 -172 63 -51 17 -136 50 -189 74 -54 25 -119 50 -145
57 -26 7 -65 28 -87 46 l-40 34 9 -31z m-767 -505 c26 -14 66 -48 89 -75 l43
-49 75 49 c41 28 89 53 105 56 24 6 21 2 -16 -18 -51 -26 -139 -87 -139 -96 0
-3 12 -18 28 -35 l27 -30 -40 31 -40 31 -47 -51 c-54 -59 -58 -83 -25 -142 20
-35 22 -47 14 -100 -10 -70 2 -121 41 -174 40 -55 40 -55 59 -40 16 13 17 12
4 -4 -12 -15 -11 -20 4 -37 10 -11 13 -20 7 -20 -6 0 -14 5 -17 10 -11 19 -25
10 -57 -35 -17 -25 -33 -43 -36 -41 -5 6 17 47 40 72 18 20 16 54 -3 54 -10 0
-35 53 -53 114 l-12 38 -18 -46 c-20 -51 -36 -55 -47 -12 -4 15 -22 44 -41 65
-51 58 -71 83 -99 126 -59 89 -70 115 -67 147 3 28 10 36 60 61 75 38 99 32
134 -31 45 -77 42 -77 88 -9 34 49 41 65 32 78 -12 17 -83 81 -131 116 -41 30
-18 29 38 -3z m419 -198 c6 4 28 8 49 9 33 2 38 -1 42 -24 6 -31 0 -41 -14
-21 -7 11 -9 7 -4 -15 9 -47 -18 -102 -54 -110 -60 -13 -97 34 -88 111 6 53
34 87 50 59 4 -9 13 -12 19 -9z m-284 -6 c-2 -5 10 -20 25 -33 22 -17 30 -34
34 -71 l6 -47 -39 3 c-36 3 -39 5 -42 36 -2 19 1 46 7 62 7 20 6 30 -1 32 -7
3 -8 10 -4 16 9 14 17 16 14 2z m168 -92 c24 -46 13 -40 -29 14 -33 43 -35 47
-12 32 14 -9 33 -30 41 -46z m-131 -133 c0 -61 -28 -141 -45 -130 -4 3 -10 -1
-13 -7 -3 -7 -5 -4 -4 7 0 11 -3 52 -7 91 -7 68 -7 72 16 88 41 29 53 17 53
-49z m123 -69 c-13 -20 -27 -36 -31 -36 -9 0 -4 10 26 53 28 41 33 26 5 -17z
m-38 -261 c24 -25 40 -45 35 -45 -14 1 -102 90 -90 90 6 0 31 -20 55 -45z
m-65 -115 c3 -5 -3 -10 -14 -10 -12 0 -21 5 -21 10 0 6 6 10 14 10 8 0 18 -4
21 -10z"/>
<path d="M716 24 c-9 -23 -8 -24 19 -24 30 0 32 11 6 27 -16 10 -20 9 -25 -3z"/>
</g>
</svg>
